<?xml version="1.0" encoding="UTF-8"?>
<svg id="Layer_2" data-name="Layer 2" xmlns="http://www.w3.org/2000/svg" viewBox="0 0 513.62 513.62">
  <defs>
    <style>
      .cls-1 {
        fill: #e4c900;
      }

      .cls-2 {
        fill: #cc460a;
      }

      .cls-3 {
        fill: #446a8e;
      }

      .cls-4 {
        fill: #be0d0d;
      }
    </style>
  </defs>
  <g id="Layer_1-2" data-name="Layer 1">
    <g>
      <path class="cls-3" d="m79.15,223.24c10.11,10.11,20.82,19.24,32.02,27.42,12.61-30.37,31.25-58.84,55.95-83.54,24.7-24.7,53.16-43.34,83.54-55.95-8.17-11.2-17.31-21.91-27.42-32.02C162.72,18.62,80.63-7.18,1.71,1.71-7.18,80.63,18.62,162.72,79.15,223.24Z"/>
      <path class="cls-4" d="m300.68,300.68c-65.74,7.4-133.67-9.27-189.52-50.02-35.8,86.22-22.91,187.87,38.69,262.96,26.52-12.83,51.38-30.23,73.38-52.23,45.03-45.03,70.83-101.99,77.44-160.7Z"/>
      <path class="cls-1" d="m250.66,111.17c40.75,55.84,57.43,123.78,50.02,189.52,58.71-6.61,115.67-32.41,160.7-77.44,22-22,39.4-46.87,52.23-73.38-75.08-61.6-176.74-74.49-262.96-38.69Z"/>
      <path class="cls-2" d="m111.17,250.66c55.84,40.75,123.78,57.43,189.52,50.02,7.4-65.74-9.27-133.67-50.02-189.52-30.37,12.61-58.84,31.25-83.54,55.95-24.7,24.7-43.34,53.16-55.95,83.54Z"/>
    </g>
  </g>
</svg>